<svg id="Layer_3" enable-background="new 0 0 64 64" height="512" viewBox="0 0 64 64" width="512" xmlns="http://www.w3.org/2000/svg"><g><path d="m22 46h-12-8c-.553 0-1 .448-1 1v4c0 .552.447 1 1 1h60c.553 0 1-.448 1-1v-4c0-.552-.447-1-1-1h-10-12zm39 2v2h-58v-2z"/><path d="m56.899 42h1.101c2.757 0 5-2.243 5-5v-12c0-2.757-2.243-5-5-5h-56c-.553 0-1 .448-1 1v20c0 .552.447 1 1 1h3.101c.465 2.279 2.484 4 4.899 4s4.434-1.721 4.899-4h2.202c.465 2.279 2.484 4 4.899 4s4.434-1.721 4.899-4h8.202c.465 2.279 2.484 4 4.899 4s4.434-1.721 4.899-4h2.202c.465 2.279 2.484 4 4.899 4s4.434-1.721 4.899-4zm1.101-2h-19v-2h21.816c-.414 1.161-1.514 2-2.816 2zm-28-9h-1c-.552 0-1-.449-1-1s.448-1 1-1h1zm2-2h1c.552 0 1 .449 1 1s-.448 1-1 1h-1zm-3-2c-1.654 0-3 1.346-3 3s1.346 3 3 3h1v7h-5v-14h5v1zm3 6h1c1.654 0 3-1.346 3-3s-1.346-3-3-3h-1v-1h5v14h-5zm29-1h-9c-.552 0-1-.449-1-1v-4c0-.551.448-1 1-1h9zm-3-10c1.302 0 2.402.839 2.816 2h-8.816c-1.654 0-3 1.346-3 3v4c0 1.654 1.346 3 3 3h9v2h-22v-11c0-.552-.447-1-1-1h-14c-.553 0-1 .448-1 1v11h-20v-2h15c1.654 0 3-1.346 3-3v-4c0-1.654-1.346-3-3-3h-15v-2zm-55 10v-6h15c.552 0 1 .449 1 1v4c0 .551-.448 1-1 1zm0 6h20v2h-20zm7 6c-1.302 0-2.402-.839-2.816-2h5.631c-.413 1.161-1.513 2-2.815 2zm12 0c-1.302 0-2.402-.839-2.816-2h5.631c-.413 1.161-1.513 2-2.815 2zm18 0c-1.302 0-2.402-.839-2.816-2h5.631c-.413 1.161-1.513 2-2.815 2zm12 0c-1.302 0-2.402-.839-2.816-2h5.631c-.413 1.161-1.513 2-2.815 2z"/><path d="m8 16h36v2h-36z"/><path d="m4 12h20v2h-20z"/><path d="m42 34h4c.553 0 1-.448 1-1v-8c0-.552-.447-1-1-1h-4c-.553 0-1 .448-1 1v8c0 .552.447 1 1 1zm1-8h2v6h-2z"/></g></svg>